<?xml version="1.0" encoding="utf-8"?>
<!-- Generator: Adobe Illustrator 26.5.0, SVG Export Plug-In . SVG Version: 6.00 Build 0)  -->
<svg version="1.1" id="Layer_1" xmlns="http://www.w3.org/2000/svg" xmlns:xlink="http://www.w3.org/1999/xlink" x="0px" y="0px"
	 viewBox="0 0 312 390" style="enable-background:new 0 0 312 390;" xml:space="preserve">
<style type="text/css">
	.st0{fill:#ED1E79;}
</style>
<g>
	<path class="st0" d="M232.21,243.29c10.64,6.76,12.37,14.58,5.07,24.07c1.13,0.88,2.29,1.74,3.39,2.66
		c7.3,6.14,10.17,14.07,10.01,23.5c-0.17,10.01,0.05,9.14-9.21,9.14c-53.39-0.01-106.78-0.01-160.18-0.01c-5.63,0-5.7-0.31-6-5.94
		c-0.54-10.03,1.18-19.14,9.26-26.05c1.22-1.04,2.52-2,4.08-3.22c-3.36-3.89-5.18-8.37-4.01-13.57c1.15-5.13,4.62-8.4,9.31-10.51
		c-32.28-38.88-25.96-93.4,7.58-124.28c33.01-30.38,83.26-33.47,120.12-2.43C255.45,145.12,266.82,200.65,232.21,243.29z
		 M162.9,242.86c19.09,0,38.17,0.04,57.26-0.08c1.52-0.01,3.49-0.69,4.48-1.76c23.38-25.64,28.32-63.39,12.4-93.87
		c-17.75-33.99-54.81-51.48-92.05-43.45c-61.93,13.36-86.59,89.92-44.05,136.97c1.13,1.24,3.35,2.09,5.08,2.1
		C124.98,242.92,143.94,242.86,162.9,242.86z M243.58,295.81c1.36-14.68-6.41-24.65-19.64-24.71c-40.67-0.17-81.33-0.18-122,0.01
		c-13.4,0.06-22.04,11.38-19.37,24.7C136.14,295.81,189.74,295.81,243.58,295.81z M162.82,263.96c21.45,0,42.9-0.02,64.36,0.02
		c3.55,0.01,6.02-1.41,7.25-4.72c1.07-2.88,0.41-5.76-1.97-7.39c-1.9-1.3-4.56-1.99-6.91-2.05c-9.6-0.22-19.21-0.09-28.81-0.09
		c-32.05,0-64.11-0.01-96.16,0.01c-6.11,0-9.44,2.55-9.5,7.12c-0.07,4.64,3.14,7.11,9.26,7.11
		C121.16,263.97,141.99,263.96,162.82,263.96z"/>
	<path class="st0" d="M47.59,247.8c0.51-13.23-6.31-20.32-19.74-20.17c5.1-2.06,11.3-2.92,14.82-6.45
		c3.48-3.49,4.24-9.67,5.92-13.96c0.51,2.29,1.18,5.79,2.08,9.24c1.05,4.04,3.72,6.8,7.68,7.97c3.5,1.04,7.13,1.64,9.79,2.24
		c-4.46,1.81-10.84,2.69-14.44,6.32C50.15,236.56,49.44,242.93,47.59,247.8z"/>
	<path class="st0" d="M243.58,117.12c13.41-0.24,20.81-6.47,20.36-20.31c2.08,5.29,2.85,11.52,6.36,14.97
		c3.58,3.52,9.84,4.3,13.25,5.62c-3.48,1.38-9.8,2.2-13.35,5.77c-3.54,3.55-4.31,9.86-6,14.21
		C261.4,119.85,259.77,120.82,243.58,117.12z"/>
	<path class="st0" d="M137.07,211.21c6.5-1.03,6.37-5.09,6.4-8.79c0.11-12.72,0.04-25.43,0.05-38.15c0-1.37-0.05-2.75,0.11-4.11
		c1.3-10.92,10.69-14.93,19.67-8.18c3.67-3.73,8.06-4.64,12.74-2.14c4.67,2.49,6.29,6.9,6.32,11.91
		c0.08,12.72,0.09,25.43,0.05,38.15c-0.02,4.57-0.25,9.12,4.71,11.61c-1.52,2.85-3.72,4.45-6.23,3.65c-1.8-0.58-3.68-2.54-4.44-4.34
		c-0.98-2.31-1.18-5.08-1.2-7.65c-0.11-13.09-0.03-26.18-0.08-39.27c-0.01-1.97,0.03-4.11-0.71-5.85c-0.51-1.19-2.29-2.41-3.58-2.5
		c-1.08-0.08-2.77,1.24-3.29,2.36c-0.75,1.62-0.91,3.61-0.91,5.44c-0.06,15.96-0.18,31.92,0.07,47.87c0.06,3.87-2.23,3.91-4.64,4.18
		c-3.13,0.35-2.82-1.96-2.82-3.99c0.01-15.83,0.01-31.67,0-47.5c0-1.37,0.07-2.76-0.1-4.11c-0.31-2.4-1.27-4.46-4.11-4.41
		c-2.79,0.05-3.82,2.07-4.1,4.47c-0.2,1.73-0.11,3.49-0.12,5.23c-0.01,12.47,0.14,24.94-0.1,37.4c-0.06,3.26-0.95,6.64-2.15,9.7
		c-1.04,2.66-3.81,3.81-6.55,3.03C140.5,214.75,139.29,213.04,137.07,211.21z"/>
	<path class="st0" d="M237.07,181.03c0,0.75,0.27,1.66-0.05,2.21c-0.84,1.42-1.75,3.53-3,3.84c-2.33,0.57-3.31-1.42-3.68-3.65
		c-1.15-6.97-1.47-14.26-3.78-20.83c-9.31-26.46-28.18-41.72-56.03-45.71c-2.09-0.3-4.21-0.58-6.31-0.58
		c-2.42,0-4.44-0.56-4.42-3.31c0.02-2.99,2.25-3.46,4.75-3.36c10.18,0.41,20.1,2.26,29.25,6.77
		C220.57,129.62,234.7,151.41,237.07,181.03z"/>
</g>
</svg>
